HIERARCHY
ROOT COM
{
	OFFSET 0.000000 0.000000 0.000000 
	CHANNELS 6 Xposition Yposition Zposition Zrotation Xrotation Yrotation
	JOINT Spine
	{
		OFFSET 0.000000 0.078370 -0.028498 
		CHANNELS 3 Zrotation Xrotation Yrotation
		JOINT Spine1
		{
			OFFSET 0.000000 0.111469 -0.000097 
			CHANNELS 3 Zrotation Xrotation Yrotation
			JOINT Spine2
			{
				OFFSET 0.000000 0.121511 -0.000092 
				CHANNELS 3 Zrotation Xrotation Yrotation
				JOINT Neck
				{
					OFFSET 0.000000 0.119873 -0.000040 
					CHANNELS 3 Zrotation Xrotation Yrotation
					JOINT Head
					{
						OFFSET 0.000000 0.051518 0.000000 
						CHANNELS 3 Zrotation Xrotation Yrotation
						End Site
						{
							OFFSET 0.000000 0.000000 0.000000 
						}
					}
					JOINT Leftcollar
					{
						OFFSET 0.033237 -0.012095 0.015552 
						CHANNELS 3 Zrotation Xrotation Yrotation
						JOINT LeftArm
						{
							OFFSET 0.131452 0.000000 0.000000 
							CHANNELS 3 Zrotation Xrotation Yrotation
							JOINT LeftForeArm
							{
								OFFSET 0.000000 -0.219203 0.000000 
								CHANNELS 3 Zrotation Xrotation Yrotation
								JOINT LeftHand
								{
									OFFSET 0.000000 -0.193166 0.000000 
									CHANNELS 3 Zrotation Xrotation Yrotation
									End Site
									{
										OFFSET -0.023329 -0.077705 -0.004495 
									}
								}
							}
						}
					}
					JOINT RightCollar
					{
						OFFSET -0.033237 -0.012094 0.015552 
						CHANNELS 3 Zrotation Xrotation Yrotation
						JOINT RightArm
						{
							OFFSET -0.131452 0.000000 0.000000 
							CHANNELS 3 Zrotation Xrotation Yrotation
							JOINT RightForeArm
							{
								OFFSET 0.000000 -0.219203 0.000000 
								CHANNELS 3 Zrotation Xrotation Yrotation
								JOINT RightHand
								{
									OFFSET 0.000000 -0.193166 0.000000 
									CHANNELS 3 Zrotation Xrotation Yrotation
									End Site
									{
										OFFSET 0.023329 -0.077705 -0.004495 
									}
								}
							}
						}
					}
				}
			}
		}
	}
	JOINT LeftUpLeg
	{
		OFFSET 0.077678 0.000000 0.000000 
		CHANNELS 3 Zrotation Xrotation Yrotation
		JOINT LeftLeg
		{
			OFFSET 0.000000 -0.359164 0.000000 
			CHANNELS 3 Zrotation Xrotation Yrotation
			JOINT LeftFoot
			{
				OFFSET 0.000000 -0.337214 0.000000 
				CHANNELS 3 Zrotation Xrotation Yrotation
				JOINT LeftToe
				{
					OFFSET 0.000000 0.000000 0.122098 
					CHANNELS 3 Zrotation Xrotation Yrotation
					End Site
					{
						OFFSET 0.000000 0.000000 0.000000 
					}
				}
			}
		}
	}
	JOINT RightUpLeg
	{
		OFFSET -0.077678 0.000000 0.000000 
		CHANNELS 3 Zrotation Xrotation Yrotation
		JOINT RightLeg
		{
			OFFSET 0.000000 -0.359164 0.000000 
			CHANNELS 3 Zrotation Xrotation Yrotation
			JOINT RightFoot
			{
				OFFSET 0.000000 -0.337214 0.000000 
				CHANNELS 3 Zrotation Xrotation Yrotation
				JOINT RightToe
				{
					OFFSET 0.000000 0.000000 0.122098 
					CHANNELS 3 Zrotation Xrotation Yrotation
					End Site
					{
						OFFSET 0.000000 0.000000 0.000000 
					}
				}
			}
		}
	}
}
MOTION
Frames: 11
Frame Time: 0.033333
0.035819 0.706376 0.011612 359.955536 7.982050 324.109711 9.733590 354.006012 0.000000 360.000000 0.000000 336.581207 360.000000 360.000000 0.000000 360.000000 360.000000 360.000000 360.000000 360.000000 0.000000 360.000000 360.000000 0.000000 36.391102 343.528015 3.116740 0.000000 314.879395 0.000000 0.000000 0.000000 90.000000 360.000000 360.000000 0.000000 338.828888 27.161699 14.234600 0.000000 352.673645 0.000000 360.000000 360.000000 270.000000 9.358960 11.615100 39.403900 0.000000 28.048100 360.000000 0.000000 14.968700 339.131592 0.000000 0.000000 360.000000 13.160200 341.655701 321.223785 360.000000 3.543520 0.000000 0.000001 24.763500 26.440399 0.000000 0.000000 360.000000 
0.016846 0.710999 0.033902 359.244598 7.191130 323.024506 9.990890 354.760315 0.000000 0.000000 0.000000 338.612305 360.000000 360.000000 0.000000 360.000000 360.000000 0.000000 360.000000 360.000000 0.000000 360.000000 360.000000 0.000000 33.718601 344.988800 359.100830 0.000000 315.378601 0.000000 360.000000 360.000000 90.000000 360.000000 360.000000 0.000000 340.243500 26.471500 15.857500 0.000000 352.700867 360.000000 360.000000 360.000000 270.000000 12.276400 9.119420 34.088902 0.000000 38.202099 360.000000 0.000000 21.535999 343.532104 360.000000 0.000000 360.000000 13.208800 344.901093 319.734100 0.000000 4.736790 0.000000 360.000000 23.086800 29.001499 0.000000 0.000000 360.000000 
-0.000147 0.715157 0.053727 359.278107 5.955010 322.061707 9.242030 355.773590 360.000000 360.000000 360.000000 340.095703 360.000000 0.000000 0.000000 0.000000 0.000000 0.000000 0.000000 0.000000 0.000000 0.000000 0.000000 0.000000 31.403799 347.091492 355.917267 0.000000 315.806305 0.000000 0.000000 0.000000 90.000000 0.000000 0.000000 0.000000 341.352814 24.501699 19.545099 0.000000 351.522949 0.000000 360.000000 360.000000 270.000000 13.792200 4.800360 28.286800 360.000000 48.073101 0.000000 360.000000 28.587999 347.725586 0.000000 360.000000 360.000000 12.495900 348.184601 316.784393 0.000000 4.895260 0.000000 0.000000 21.842100 32.840500 0.000000 0.000000 360.000000 
-0.016631 0.717946 0.071077 359.337799 5.055050 321.227112 8.384740 356.564240 0.000000 360.000000 0.000000 341.301208 0.000000 0.000000 0.000000 360.000000 0.000000 360.000000 0.000000 360.000000 360.000000 0.000000 360.000000 360.000000 29.614799 349.531586 352.585175 0.000000 317.125305 0.000000 0.000000 0.000000 90.000000 0.000000 360.000000 360.000000 342.012909 21.575899 24.409100 0.000000 349.176300 360.000000 360.000000 0.000000 270.000000 14.870100 0.193205 24.099300 0.000000 55.940102 360.000000 360.000000 26.142700 351.642578 0.000000 0.000000 0.000000 12.376900 351.213928 316.668488 360.000000 4.185470 0.000000 360.000000 20.481600 34.010601 360.000000 360.000000 0.000000 
-0.032949 0.720220 0.087810 359.542389 3.903510 319.602692 7.266190 357.537598 0.000000 0.000000 360.000000 343.044495 0.000000 360.000000 0.000000 0.000000 360.000000 0.000000 0.000000 360.000000 0.000000 0.000000 360.000000 0.000000 27.891899 352.248657 349.571289 360.000000 319.167999 0.000000 360.000000 0.000000 90.000000 0.000000 360.000000 0.000000 342.123688 17.807800 28.677900 360.000000 346.022491 0.000000 0.000000 0.000000 270.000000 15.309000 356.192627 21.264799 0.000000 60.278400 360.000000 360.000000 22.301300 354.868774 0.000000 360.000000 360.000000 12.023000 354.256805 318.427399 360.000000 3.659170 0.000000 0.000001 18.738300 33.791000 0.000000 0.000000 360.000000 
-0.048549 0.721594 0.103355 359.902069 2.840930 317.639709 6.121320 358.499481 0.000000 360.000000 0.000000 344.610504 0.000000 0.000000 0.000000 360.000000 0.000000 360.000000 0.000000 0.000000 0.000000 0.000000 0.000000 0.000000 26.472900 355.780334 346.991791 360.000000 321.110687 0.000000 360.000000 360.000000 90.000000 0.000000 0.000000 0.000000 341.795288 13.034600 31.273001 360.000000 342.052399 360.000000 360.000000 0.000000 270.000000 15.109400 352.111664 18.483900 0.000000 61.906700 360.000000 360.000000 19.490999 357.997223 0.000000 360.000000 0.000000 11.294700 356.761383 319.634399 0.000000 3.836990 0.000000 360.000000 17.161800 34.319500 0.000000 360.000000 0.000000 
-0.063725 0.722040 0.118402 0.230579 2.098300 315.510498 5.230970 359.280273 0.000000 0.000000 0.000000 346.304901 0.000000 360.000000 0.000000 0.000000 360.000000 0.000000 0.000000 0.000000 0.000000 0.000000 0.000000 0.000000 24.965799 359.248230 344.808197 360.000000 323.935211 0.000000 0.000000 0.000000 90.000000 0.000000 0.000000 0.000000 341.225494 7.974290 32.408699 0.000000 337.612488 0.000000 0.000000 0.000000 270.000000 14.849600 348.092590 15.898800 0.000000 61.189602 360.000000 360.000000 16.737000 0.894832 360.000000 0.000000 360.000000 10.499400 358.765442 320.283600 0.000000 4.543950 0.000000 360.000000 15.567600 35.622700 0.000000 0.000000 0.000000 
-0.078695 0.722067 0.132935 0.485282 1.398760 313.549011 4.408250 0.180999 0.000000 0.000000 360.000000 347.615509 0.000000 360.000000 360.000000 360.000000 360.000000 0.000000 360.000000 360.000000 0.000000 360.000000 360.000000 0.000000 23.445900 2.781720 343.087097 360.000000 327.409302 360.000000 0.000000 360.000000 90.000000 360.000000 360.000000 0.000000 340.367493 2.813400 32.843201 360.000000 332.626404 360.000000 360.000000 0.000000 270.000000 14.345600 344.510986 13.563100 0.000000 58.103600 360.000000 360.000000 14.144900 2.496290 0.000000 0.000000 360.000000 9.556870 0.554272 321.498993 0.000000 5.603930 360.000000 360.000000 13.957200 36.342701 360.000000 0.000000 360.000000 
-0.092916 0.721559 0.147223 1.306610 1.139550 311.602600 3.520700 0.397525 0.000000 360.000000 360.000000 349.199585 0.000000 0.000000 360.000000 0.000000 360.000000 360.000000 360.000000 360.000000 360.000000 360.000000 360.000000 360.000000 21.888901 5.832180 341.547699 360.000000 331.389313 360.000000 360.000000 0.000000 90.000000 360.000000 360.000000 360.000000 339.371002 358.005890 32.049999 360.000000 327.360504 360.000000 360.000000 360.000000 270.000000 13.607000 340.946686 12.537900 0.000000 53.004799 360.000000 360.000000 12.374100 4.266250 0.000000 0.000000 0.000000 8.560630 1.477030 322.921814 0.000000 6.604400 360.000000 360.000000 11.729200 36.358398 360.000000 0.000000 0.000000 
-0.107595 0.720945 0.161757 1.927770 1.063910 309.839813 2.933150 0.639205 0.000000 0.000000 360.000000 350.572266 0.000000 360.000000 360.000000 360.000000 360.000000 0.000000 360.000000 0.000000 0.000000 360.000000 0.000000 0.000000 20.521400 8.884760 339.667114 0.000000 335.239502 0.000000 360.000000 0.000000 90.000000 360.000000 0.000000 0.000000 338.197998 353.407654 31.151199 360.000000 322.556091 0.000000 360.000000 360.000000 270.000000 12.992300 338.042206 12.725400 360.000000 46.398998 360.000000 360.000000 11.117500 4.938230 0.000000 0.000000 0.000000 7.723810 2.334520 325.627411 360.000000 7.796430 0.000000 360.000000 10.197700 35.351898 0.000000 0.000000 360.000000 
-0.123059 0.719890 0.177628 2.574390 0.927140 308.372314 2.268620 0.640973 0.000000 360.000000 0.000000 351.510956 360.000000 0.000000 0.000000 360.000000 0.000000 0.000000 360.000000 360.000000 0.000000 360.000000 360.000000 0.000000 19.162399 11.923600 338.054199 360.000000 339.056610 0.000000 360.000000 360.000000 90.000000 360.000000 360.000000 0.000000 336.695496 349.127594 30.589399 0.000000 318.299713 0.000000 360.000000 360.000000 270.000000 12.016800 336.101990 14.719000 360.000000 38.118999 360.000000 0.000000 11.501400 3.684390 0.000000 360.000000 360.000000 6.790420 3.344700 327.936493 0.000000 8.773320 360.000000 360.000000 8.626170 34.426498 360.000000 0.000000 360.000000 
